<svg width="33" height="36" viewBox="0 0 33 36" fill="none" xmlns="http://www.w3.org/2000/svg">
<path d="M30.8611 12.3613L22.1227 10.9045L18.2177 1.85444C17.8666 1.04575 17.1819 0.636963 16.4971 0.636963C15.8165 0.636963 15.1365 1.04028 14.7843 1.85444L10.8781 10.9039L2.13905 12.3592C0.571907 12.619 -0.0561458 14.8263 1.07996 16.091L7.40168 23.132L5.90558 33.0769C5.69304 34.4974 6.68348 35.637 7.79272 35.637C8.08704 35.637 8.38973 35.557 8.68047 35.3806L16.4983 30.6857L24.3155 35.382C24.6057 35.5563 24.9077 35.6356 25.2009 35.6356C26.3113 35.6356 27.3035 34.5001 27.091 33.079L25.5967 23.1333L31.9196 16.0937C33.0563 14.8291 32.4283 12.621 30.8611 12.3613ZM23.5931 20.7832L22.5114 21.9876L22.7669 23.6884L23.9322 31.4438L17.835 27.7804L16.4989 26.9779L16.5007 5.29497L19.5472 12.3558L20.2147 13.9028L21.7078 14.1516L28.5274 15.2884L23.5931 20.7832Z" fill="#EDF5E1"/>
</svg>
